<svg xmlns="http://www.w3.org/2000/svg" width="12" height="16" viewBox="0 0 12 16" fill="none">
          <path
            d="M11.376 8.41582L0.777 15.4818C0.701706 15.5319 0.61423 15.5607 0.523891 15.565C0.433553 15.5693 0.343733 15.5491 0.263999 15.5064C0.184265 15.4637 0.117604 15.4002 0.0711136 15.3226C0.0246236 15.245 4.67204e-05 15.1563 0 15.0658V0.933824C4.67204e-05 0.843382 0.0246236 0.754646 0.0711136 0.677067C0.117604 0.599488 0.184265 0.535972 0.263999 0.493283C0.343733 0.450594 0.433553 0.430332 0.523891 0.434653C0.61423 0.438975 0.701706 0.467719 0.777 0.517824L11.376 7.58382C11.4445 7.62949 11.5006 7.69135 11.5395 7.76392C11.5783 7.83648 11.5986 7.91752 11.5986 7.99982C11.5986 8.08213 11.5783 8.16316 11.5395 8.23573C11.5006 8.3083 11.4445 8.37016 11.376 8.41582Z"
            fill="white" />
        </svg>